0
SECTION
2
HEADER
9
$INSUNITS
70
4
9
$ACADVER
1
AC1014
9
$HANDSEED
5
FFFF
0
ENDSEC
0
SECTION
2
TABLES
0
TABLE
2
VPORT
5
8
100
AcDbSymbolTable
0
ENDTAB
0
TABLE
2
LTYPE
5
5
100
AcDbSymbolTable
0
LTYPE
5
14
100
AcDbSymbolTableRecord
100
AcDbLinetypeTableRecord
2
BYBLOCK
70
0
0
LTYPE
5
15
100
AcDbSymbolTableRecord
100
AcDbLinetypeTableRecord
2
BYLAYER
70
0
0
ENDTAB
0
TABLE
2
LAYER
5
2
100
AcDbSymbolTable
70
2
0
LAYER
5
50
100
AcDbSymbolTableRecord
100
AcDbLayerTableRecord
2
0
70
0
6
CONTINUOUS
0
ENDTAB
0
TABLE
2
STYLE
5
3
100
AcDbSymbolTable
70
1
0
STYLE
5
11
100
AcDbSymbolTableRecord
100
AcDbTextStyleTableRecord
2
STANDARD
70
0
0
ENDTAB
0
TABLE
2
VIEW
5
6
100
AcDbSymbolTable
70
0
0
ENDTAB
0
TABLE
2
UCS
5
7
100
AcDbSymbolTable
70
0
0
ENDTAB
0
TABLE
2
APPID
5
9
100
AcDbSymbolTable
70
2
0
APPID
5
12
100
AcDbSymbolTableRecord
100
AcDbRegAppTableRecord
2
ACAD
70
0
0
ENDTAB
0
TABLE
2
DIMSTYLE
5
A
100
AcDbSymbolTable
70
1
0
ENDTAB
0
TABLE
2
BLOCK_RECORD
5
1
100
AcDbSymbolTable
70
1
0
BLOCK_RECORD
5
1F
100
AcDbSymbolTableRecord
100
AcDbBlockTableRecord
2
*MODEL_SPACE
0
BLOCK_RECORD
5
1B
100
AcDbSymbolTableRecord
100
AcDbBlockTableRecord
2
*PAPER_SPACE
0
ENDTAB
0
ENDSEC
0
SECTION
2
BLOCKS
0
BLOCK
5
20
100
AcDbEntity
100
AcDbBlockBegin
2
*MODEL_SPACE
0
ENDBLK
5
21
100
AcDbEntity
100
AcDbBlockEnd
0
BLOCK
5
1C
100
AcDbEntity
100
AcDbBlockBegin
2
*PAPER_SPACE
0
ENDBLK
5
1D
100
AcDbEntity
100
AcDbBlockEnd
0
ENDSEC
0
SECTION
2
ENTITIES
0
LWPOLYLINE
5
100
100
AcDbEntity
8
0
100
AcDbPolyline
90
6
70
1
43
0.0
10
855.20101012677674
20
345.62741699796959
10
853.78679656440352
20
344.21320343559643
10
875
20
323
10
896.21320343559648
20
344.21320343559643
10
894.79898987322326
20
345.62741699796959
10
875
20
325.82842712474633
0
LWPOLYLINE
5
101
100
AcDbEntity
8
0
100
AcDbPolyline
90
6
70
1
43
0.0
10
855.20101012677674
20
325.62741699796959
10
853.78679656440352
20
324.21320343559643
10
875
20
303
10
896.21320343559648
20
324.21320343559643
10
894.79898987322326
20
325.62741699796959
10
875
20
305.82842712474633
0
LWPOLYLINE
5
102
100
AcDbEntity
8
0
100
AcDbPolyline
90
6
70
1
43
0.0
10
855.20101012677674
20
305.62741699796965
10
853.78679656440352
20
304.21320343559648
10
875
20
283
10
896.21320343559648
20
304.21320343559648
10
894.79898987322326
20
305.62741699796965
10
875
20
285.82842712474633
0
LWPOLYLINE
5
103
100
AcDbEntity
8
0
100
AcDbPolyline
90
6
70
1
43
0.0
10
855.20101012677674
20
285.62741699796965
10
853.78679656440352
20
284.21320343559648
10
875
20
263
10
896.21320343559648
20
284.21320343559648
10
894.79898987322326
20
285.62741699796965
10
875
20
265.82842712474633
0
LWPOLYLINE
5
104
100
AcDbEntity
8
0
100
AcDbPolyline
90
6
70
1
43
0.0
10
855.20101012677674
20
265.62741699796965
10
853.78679656440352
20
264.21320343559648
10
875
20
243
10
896.21320343559648
20
264.21320343559648
10
894.79898987322326
20
265.62741699796965
10
875
20
245.82842712474633
0
LWPOLYLINE
5
105
100
AcDbEntity
8
0
100
AcDbPolyline
90
6
70
1
43
0.0
10
855.20101012677674
20
245.62741699796962
10
853.78679656440352
20
244.21320343559645
10
875
20
223
10
896.21320343559648
20
244.21320343559645
10
894.79898987322326
20
245.62741699796962
10
875
20
225.82842712474633
0
LWPOLYLINE
5
106
100
AcDbEntity
8
0
100
AcDbPolyline
90
6
70
1
43
0.0
10
855.20101012677674
20
225.62741699796962
10
853.78679656440352
20
224.21320343559645
10
875
20
203
10
896.21320343559648
20
224.21320343559645
10
894.79898987322326
20
225.62741699796962
10
875
20
205.82842712474633
0
LWPOLYLINE
5
107
100
AcDbEntity
8
0
100
AcDbPolyline
90
6
70
1
43
0.0
10
855.20101012677674
20
205.62741699796962
10
853.78679656440352
20
204.21320343559645
10
875
20
183
10
896.21320343559648
20
204.21320343559645
10
894.79898987322326
20
205.62741699796962
10
875
20
185.82842712474633
0
LWPOLYLINE
5
108
100
AcDbEntity
8
0
100
AcDbPolyline
90
6
70
1
43
0.0
10
855.20101012677674
20
185.62741699796962
10
853.78679656440352
20
184.21320343559645
10
875
20
163
10
896.21320343559648
20
184.21320343559645
10
894.79898987322326
20
185.62741699796962
10
875
20
165.82842712474633
0
LWPOLYLINE
5
109
100
AcDbEntity
8
0
100
AcDbPolyline
90
6
70
1
43
0.0
10
855.20101012677674
20
165.62741699796962
10
853.78679656440352
20
164.21320343559645
10
875
20
143
10
896.21320343559648
20
164.21320343559645
10
894.79898987322326
20
165.62741699796962
10
875
20
145.82842712474633
0
LWPOLYLINE
5
110
100
AcDbEntity
8
0
100
AcDbPolyline
90
6
70
1
43
0.0
10
855.20101012677674
20
145.62741699796962
10
853.78679656440352
20
144.21320343559645
10
875
20
123
10
896.21320343559648
20
144.21320343559645
10
894.79898987322326
20
145.62741699796962
10
875
20
125.82842712474633
0
LWPOLYLINE
5
111
100
AcDbEntity
8
0
100
AcDbPolyline
90
6
70
1
43
0.0
10
855.20101012677674
20
125.62741699796962
10
853.78679656440352
20
124.21320343559645
10
875
20
103
10
896.21320343559648
20
124.21320343559645
10
894.79898987322326
20
125.62741699796962
10
875
20
105.82842712474633
0
LWPOLYLINE
5
112
100
AcDbEntity
8
0
100
AcDbPolyline
90
6
70
1
43
0.0
10
855.20101012677674
20
105.62741699796962
10
853.78679656440352
20
104.21320343559645
10
875
20
83
10
896.21320343559648
20
104.21320343559645
10
894.79898987322326
20
105.62741699796962
10
875
20
85.828427124746327
0
LWPOLYLINE
5
113
100
AcDbEntity
8
0
100
AcDbPolyline
90
6
70
1
43
0.0
10
855.20101012677674
20
85.627416997969618
10
853.78679656440352
20
84.213203435596455
10
875
20
63
10
896.21320343559648
20
84.213203435596455
10
894.79898987322326
20
85.627416997969618
10
875
20
65.828427124746327
0
LWPOLYLINE
5
114
100
AcDbEntity
8
0
100
AcDbPolyline
90
6
70
1
43
0.0
10
855.20101012677674
20
65.627416997969618
10
853.78679656440352
20
64.213203435596455
10
875
20
43
10
896.21320343559648
20
64.213203435596455
10
894.79898987322326
20
65.627416997969618
10
875
20
45.828427124746327
0
LWPOLYLINE
5
115
100
AcDbEntity
8
0
100
AcDbPolyline
90
6
70
1
43
0.0
10
855.20101012677674
20
45.627416997969618
10
853.78679656440352
20
44.213203435596455
10
875
20
23
10
896.21320343559648
20
44.213203435596455
10
894.79898987322326
20
45.627416997969618
10
875
20
25.828427124746327
0
LWPOLYLINE
5
116
100
AcDbEntity
8
0
100
AcDbPolyline
90
6
70
1
43
0.0
10
855.20101012677674
20
25.627416997969618
10
853.78679656440352
20
24.213203435596455
10
875
20
2.9999999999999982
10
896.21320343559648
20
24.213203435596455
10
894.79898987322326
20
25.627416997969618
10
875
20
5.8284271247463266
0
LWPOLYLINE
5
117
100
AcDbEntity
8
0
100
AcDbPolyline
90
4
70
1
43
0.0
10
850
20
0
10
850
20
350
10
900
20
350
10
900
20
0
0
ENDSEC
0
SECTION
2
OBJECTS
0
DICTIONARY
5
C
100
AcDbDictionary
3
ACAD_GROUP
350
D
3
ACAD_MLINESTYLE
350
17
0
DICTIONARY
5
D
100
AcDbDictionary
0
DICTIONARY
5
1A
330
C
100
AcDbDictionary
0
DICTIONARY
5
17
100
AcDbDictionary
0
ENDSEC
0
EOF
